<?xml version="1.0" standalone="no"?>
<!DOCTYPE svg PUBLIC "-//W3C//DTD SVG 1.1//EN" "http://www.w3.org/Graphics/SVG/1.1/DTD/svg11.dtd" >
<svg xmlns="http://www.w3.org/2000/svg">
<metadata>Generated by IcoMoon</metadata>
<defs>
<font id="icomoon" horiz-adv-x="1024">
<font-face units-per-em="1024" ascent="960" descent="-64" />
<missing-glyph horiz-adv-x="1024" />
<glyph unicode="&#x20;" horiz-adv-x="512" d="" />
<glyph unicode="&#xe900;" glyph-name="discover" d="M147.163 456.411c35.913 4.023 110.299 9.509 145.408-8.411 60.782-30.939 126.83-105.911 126.83-105.911l-145.847-169.326c64.146-55.662 146.871-90.478 238.446-90.478 202.021 0 365.714 163.767 365.714 365.714 0 34.597-6.29 67.438-15.287 99.109-29.769-34.743-90.112-79.287-90.112-79.287-51.2 5.705-26.331-57.637-26.331-57.637 21.577-140.142-52.736-157.403-52.736-157.403-101.303-104.082-181.248 122.075-181.248 122.075-18.725 125.879-29.55 166.181-29.55 166.181-129.682 81.042-1.902 110.592 25.6 115.273 0.293 0.073 0.439-0.073 0.805 0 6.583 0.951 4.974 1.024-0.805 0-36.718-5.047-29.696 17.262-51.931 57.637-22.455 40.741-49.883-6.875-52.736 0-2.779 6.802-15.726-74.606-52.663-86.455s-26.331 86.455-26.331 86.455c-71.314-109.202-94.647-81.335-102.107-45.422-45.056-59.392-73.289-132.242-75.118-212.114zM512-64c-282.77 0-512 229.23-512 512s229.23 512 512 512c282.77 0 512-229.23 512-512s-229.23-512-512-512z" />
<glyph unicode="&#xe901;" glyph-name="helpcenter" d="M512 960c-282.77 0-512-229.23-512-512s229.23-512 512-512c282.77 0 512 229.23 512 512s-229.23 512-512 512v0zM623.296 785.152l8.64 31.232c3.882 14.323 13.867 26.214 27.304 32.513s28.964 6.369 42.456 0.191c93.041-44.094 167.973-119.004 212.096-212.032 6.218-13.742 5.967-29.545-0.685-43.082s-19.006-23.393-33.683-26.87l-32-7.616c-21.47-5.456-43.854 4.699-53.888 24.448-30.989 63.561-82.419 114.879-146.048 145.728-20.454 10.19-30.732 33.517-24.448 55.488v0h0.256zM110.4 637.952c44.086 93.047 118.998 167.982 212.032 212.096 13.74 6.242 29.553 6.003 43.098-0.652s23.398-19.026 26.854-33.716l7.68-32c5.431-21.468-4.717-43.836-24.448-53.888-63.577-30.936-114.904-82.353-145.728-145.984-10.214-20.463-33.563-30.739-55.552-24.448l-31.232 8.576c-14.312 3.896-26.186 13.888-32.472 27.323s-6.347 28.953-0.168 42.437v0l-0.064 0.256zM400.128 110.592l-8.576-31.232c-3.882-14.323-13.867-26.214-27.304-32.513s-28.964-6.369-42.456-0.191c-93.029 44.112-167.956 119.016-212.096 212.032-6.242 13.74-6.003 29.553 0.652 43.098s19.026 23.398 33.716 26.854l32 7.68c21.468 5.431 43.836-4.717 53.888-24.448 30.936-63.599 82.381-114.932 146.048-145.728 20.458-10.217 30.712-33.578 24.384-55.552v0h-0.256zM267.456 447.488c0 135.482 109.83 245.312 245.312 245.312s245.312-109.83 245.312-245.312c0-135.482-109.83-245.312-245.312-245.312s-245.312 109.83-245.312 245.312v0 0zM913.024 258.176c-44.074-93.034-118.961-167.966-211.968-212.096-13.738-6.267-29.562-6.040-43.115 0.619s-23.403 19.046-26.837 33.749l-7.616 32c-5.482 21.472 4.68 43.871 24.448 53.888 63.57 30.977 114.891 82.41 145.728 146.048 10.217 20.458 33.578 30.712 55.552 24.384l31.168-8.576c14.319-3.866 26.211-13.839 32.511-27.266s6.371-28.947 0.193-42.43v0l-0.064-0.32z" />
<glyph unicode="&#xe902;" glyph-name="displaylists" d="M736 384c17.664 0 32-28.672 32-64s-14.336-64-32-64h-448c-17.664 0-32 28.672-32 64s14.336 64 32 64h448zM960 896c35.328 0 64-28.672 64-64s-28.672-64-64-64h-896c-35.328 0-64 28.672-64 64s28.672 64 64 64h896zM624 128c8.832 0 16-28.672 16-64s-7.168-64-16-64h-224c-8.832 0-16 28.672-16 64s7.168 64 16 64h224zM848 640c26.496 0 48-28.672 48-64s-21.504-64-48-64h-672c-26.496 0-48 28.672-48 64s21.504 64 48 64h672z" />
<glyph unicode="&#xe903;" glyph-name="products" d="M347.021 283.021c22.792-22.792 59.733-22.792 82.462 0l247.513 247.449c22.728 22.792 22.728 59.733 0 82.526-22.792 22.728-59.733 22.728-82.526 0l-247.449-247.449c-22.792-22.792-22.792-59.733 0-82.526v0zM1006.906 695.457l-247.449 247.449c-22.792 22.792-59.733 22.792-82.462 0l-247.513-247.449c-22.728-22.792-22.728-59.733 0-82.462l41.295-41.295 247.449 247.513 164.987-164.987-247.513-247.449 41.295-41.231c22.728-22.792 59.669-22.792 82.462 0l247.449 247.449c22.792 22.728 22.792 59.669 0 82.462v0zM553.239 324.252l-247.449-247.449-164.987 164.987 247.449 247.449-41.231 41.231c-22.792 22.792-59.733 22.792-82.462 0l-247.513-247.449c-22.728-22.792-22.728-59.733 0-82.462l247.513-247.513c22.728-22.728 59.669-22.728 82.462 0l247.449 247.513c22.792 22.728 22.792 59.669 0 82.462l-41.231 41.231z" />
<glyph unicode="&#xe904;" glyph-name="analytics" d="M128 960v-896h896v-128h-960c-35.392 0-64 28.672-64 64v960h128zM352 192h-64c-17.664 0-32 14.336-32 32v320c0 17.664 14.336 32 32 32h64c17.664 0 32-14.336 32-32v-320c0-17.664-14.336-32-32-32zM544 192h-64c-17.664 0-32 14.336-32 32v576c0 17.664 14.336 32 32 32h64c17.664 0 32-14.336 32-32v-576c0-17.664-14.336-32-32-32zM736 192h-64c-17.664 0-32 14.336-32 32v192c0 17.664 14.336 32 32 32h64c17.664 0 32-14.336 32-32v-192c0-17.664-14.336-32-32-32zM928 192h-64c-17.664 0-32 14.336-32 32v448c0 17.664 14.336 32 32 32h64c17.664 0 32-14.336 32-32v-448c0-17.664-14.336-32-32-32z" />
<glyph unicode="&#xe905;" glyph-name="campaings" d="M768 384c-35.328 0-64 28.672-64 64s28.672 64 64 64c35.328 0 64-28.672 64-64s-28.672-64-64-64v0zM896 512c0 35.328-28.672 64-64 64h-384c-35.328 0-64-28.672-64-64v-256l128 128 320-320c35.328 0 64 28.672 64 64v384zM640 768c0 35.328-28.672 64-64 64h-384c-35.328 0-64-28.672-64-64v-384c0-35.328 28.672-64 64-64h64v256c0 70.72 57.28 128 128 128h256v64zM388.992 103.104c-3.2 7.616-4.992 16-4.992 24.768 0-8.768 1.792-17.152 4.992-24.768v0zM448 64h192l-128 128-109.248-109.248c-5.696 5.696-10.304 12.48-13.504 20.032 9.792-22.784 32.384-38.784 58.752-38.784v0zM896-64h-512c-70.72 0-128 57.28-128 128v128h-128c-70.72 0-128 57.28-128 128v512c0 70.72 57.28 128 128 128h512c70.72 0 128-57.28 128-128v-128h128c70.72 0 128-57.28 128-128v-512c0-70.72-57.28-128-128-128v0z" />
<glyph unicode="&#xe906;" glyph-name="users" d="M605.576 839.529c-0.365-66.065-54.142-119.366-120.207-119.145s-119.484 53.881-119.407 119.947c0.077 66.066 53.62 119.601 119.686 119.669 66.275-0.365 119.809-54.194 119.808-120.471v0h0.12zM258.982 569.675l24.094-260.698c2.251-20.411 19.228-36.024 39.755-36.563l18.071-0.663c14.138-0.355 25.729-11.322 26.865-25.419l21.745-273.769c2.066-20.986 19.875-36.884 40.96-36.563h111.375c21.117-0.347 38.951 15.599 40.96 36.623l21.624 273.95c1.225 14.015 12.8 24.863 26.865 25.178l18.071 0.723c20.256 0.525 36.983 15.989 39.093 36.141l24.094 261.241c-17.007 46.562-57.596 80.489-106.436 88.968h-240.941c-48.846-8.473-89.389-42.508-106.195-89.148v0zM769.054 569.675l-24.395-266.24c-4.12-38.869-31.516-71.301-69.15-81.86-9.498-2.98-16.495-11.073-18.071-20.902l-13.553-145.83c-0.555-8.379 2.414-16.609 8.189-22.704s13.833-9.503 22.23-9.401h83.366c18.623-0.429 34.407 13.618 36.141 32.166l18.974 240.339c1.020 12.342 11.23 21.901 23.612 22.106l15.661 0.602c17.721 0.498 32.355 14 34.274 31.624l21.203 228.894c-0.561 31.083-26.2 55.833-57.284 55.296h-66.921c-6.842 0.186-13.346-2.97-17.434-8.46s-5.246-12.626-3.106-19.128c4.074-11.901 6.111-24.405 6.024-36.984v0l0.241 0.482zM691.351 920.245c-7.1-0.852-13.413-4.923-17.118-11.039s-4.39-13.597-1.856-20.284c22.28-55.274 15.643-118.005-17.709-167.394-3.822-6.069-4.595-13.574-2.091-20.295s7.999-11.89 14.861-13.979c47.902-19.002 102.579-5.768 136.489 33.037s39.696 94.762 14.445 139.685c-25.251 44.923-76.063 69.066-126.84 60.268v0h-0.181zM208.565 606.66c2.14 6.501 0.981 13.638-3.106 19.128s-10.592 8.646-17.434 8.46h-66.741c-14.932 0.274-29.36-5.4-40.105-15.773s-16.925-24.591-17.179-39.523l21.203-228.894c1.923-17.646 16.59-31.155 34.334-31.624l15.661-0.602c12.359-0.236 22.534-9.787 23.552-22.106l18.974-240.339c1.735-18.547 17.518-32.594 36.141-32.166h83.305c8.397-0.102 16.455 3.305 22.23 9.401s8.744 14.326 8.189 22.704l-13.734 145.709c-1.602 9.816-8.589 17.898-18.071 20.902-37.521 10.51-64.891 42.766-69.15 81.498l-24.094 266.059c-0.087 12.579 1.949 25.083 6.024 36.984v0 0.181zM138.029 813.026c-3.166-41.951 15.171-82.642 48.695-108.059s77.655-32.087 117.193-17.712c6.862 2.089 12.357 7.258 14.861 13.979s1.731 14.226-2.091 20.295c-33.352 49.389-39.989 112.12-17.709 167.394 2.532 6.678 1.855 14.149-1.837 20.263s-9.988 10.192-17.077 11.060c-33.127 5.092-66.905-3.428-93.655-23.621s-44.199-50.344-48.38-83.598v0 0z" />
<glyph unicode="&#xe907;" glyph-name="accounts" d="M768 192h-512c-70.72 0-128 57.28-128 128s57.28 128 128 128v64c0 106.048 85.952 192 192 192s192-85.952 192-192v-64h128c70.72 0 128-57.28 128-128s-57.28-128-128-128zM768 576c-2.176 0-4.224-0.576-6.4-0.64-29.376 146.368-158.592 256.64-313.6 256.64-166.4 0-301.568-127.488-316.992-289.856-77.824-43.904-131.008-126.4-131.008-222.144 0-141.376 114.624-256 256-256h512c141.376 0 256 114.624 256 256s-114.624 256-256 256z" />
<glyph unicode="&#xe908;" glyph-name="notification" d="M646.737 89.6c0-84.838-60.324-153.6-134.737-153.6s-134.737 68.762-134.737 153.6h269.474zM839.226 686.936l44.14-356.614c1.532-12.448 13.324-25.571 26.306-29.259l60.127-17.061c13.054-3.695 26.109-16.562 29.312-28.76l24.204-92.357c3.218-12.266-5.203-22.084-18.753-22.084h-985.125c-13.631 0-21.949 9.892-18.753 22.084l24.204 92.357c3.211 12.273 16.36 25.085 29.4 28.787l55.698 15.8c12.981 3.682 24.868 16.845 26.415 29.36l44.271 357.747c18.658 150.808 166.051 273.064 329.277 273.064 163.198 0 310.612-122.203 329.277-273.064z" />
<glyph unicode="&#xe909;" glyph-name="widget" d="M793.6 384h-115.2c-70.4 0-102.4-32-102.4-102.4v-115.2c0-70.4 32-102.4 102.4-102.4h115.2c70.4 0 102.4 32 102.4 102.4v115.2c0 70.4-32 102.4-102.4 102.4zM345.6 384h-115.2c-70.4 0-102.4-32-102.4-102.4v-115.2c0-70.4 32-102.4 102.4-102.4h115.2c70.4 0 102.4 32 102.4 102.4v115.2c0 70.4-32 102.4-102.4 102.4zM793.6 832h-115.2c-70.4 0-102.4-32-102.4-102.4v-115.2c0-70.4 32-102.4 102.4-102.4h115.2c70.4 0 102.4 32 102.4 102.4v115.2c0 70.4-32 102.4-102.4 102.4zM345.6 832h-115.2c-70.4 0-102.4-32-102.4-102.4v-115.2c0-70.4 32-102.4 102.4-102.4h115.2c70.4 0 102.4 32 102.4 102.4v115.2c0 70.4-32 102.4-102.4 102.4z" />
<glyph unicode="&#xe90a;" glyph-name="waiting" d="M630.126 870.606l0.83-318.747 125.996 126.893c123.593-132.892 121.418-341.168-6.949-470.455-52.547-52.93-118.238-84.497-186.574-94.867l3.824-113.431c95.871 11.648 188.618 54.405 262.089 128.39 172.042 173.289 174.085 452.95 6.709 630.019l95.096 95.774-301.021 16.423zM267.040 217.269c-123.604 132.87-121.407 341.157 6.96 470.444 52.547 52.908 118.238 84.497 186.542 94.867l-3.813 113.42c-95.85-11.637-188.596-54.394-262.078-128.39-172.031-173.278-174.074-452.928-6.72-629.997l-95.096-95.785 301.021-16.434-0.83 318.747-125.986-126.871z" />
<glyph unicode="&#xe90b;" glyph-name="upload" d="M778.895 581.632c-14.121 0-27.945-1.229-41.4-3.482-33.597 109.814-137.656 189.85-260.895 189.85-150.426 0-272.343-119.194-272.343-266.25 0-13.117 1.014-26.020 2.898-38.646-7.219 0.829-14.52 1.393-21.965 1.393-102.277 0-185.19-81.060-185.19-181.033 0-100.004 82.913-181.064 185.19-181.064h255.13v194.56h-107.52l179.2 235.52 179.2-235.52h-107.52v-194.56h195.215c135.383 0 245.105 107.284 245.105 239.626 0 132.321-109.722 239.606-245.105 239.606z" />
<glyph unicode="&#xe90c;" glyph-name="user" d="M896 192c0 69.12-73.664 129.152-183.168 162.944-46.848-59.776-118.976-98.944-200.832-98.944s-153.984 39.168-200.832 98.944c-109.504-33.792-183.168-93.824-183.168-162.944v-128h768v128zM640 704c0 70.72-57.28 128-128 128s-128-57.28-128-128v-192c0-70.72 57.28-128 128-128s128 57.28 128 128v192zM960-64h-896c-35.328 0-64 28.672-64 64v192c0 119.296 105.472 222.208 260.352 277.184-2.432 13.952-4.352 28.16-4.352 42.816v192c0 141.376 114.624 256 256 256s256-114.624 256-256v-192c0-14.656-1.92-28.864-4.352-42.816 154.88-54.976 260.352-157.888 260.352-277.184v-192c0-35.328-28.672-64-64-64v0z" />
<glyph unicode="&#xe90d;" glyph-name="star" d="M512 960l-138.944-391.104h-373.056l304.384-229.696-108.8-403.2 316.416 241.728 316.416-241.728-108.8 403.2 304.384 229.696h-373.056z" />
<glyph unicode="&#xe90e;" glyph-name="settings" horiz-adv-x="1088" d="M448.24 254.521c-98.293 43.763-142.503 158.934-98.736 257.236s158.934 142.503 257.226 98.74c98.302-43.767 142.507-158.924 98.74-257.226s-158.928-142.517-257.23-98.75zM858.030 285.347c22.721 51.032 72.073 77.328 131.712 83.958 4.165 32.275 5.019 64.588 2.564 96.471-59.231 9.733-92.921 49.638-112.945 101.801s-11.95 100.037 25.551 146.894c-19.5 25.332-41.742 48.779-66.453 69.986-48.766-34.999-112.763-44.126-163.805-21.401-51.032 22.721-87.072 76.387-93.703 136.051-32.28 4.179-64.602 5.013-96.457 2.569-9.747-59.237-39.907-97.265-92.075-117.299-52.163-20.024-104.381-21.68-151.246 15.801-25.328-19.49-48.769-41.746-69.968-66.437 34.979-48.757 48.46-103.028 25.739-154.060-22.725-51.042-76.411-87.073-136.051-93.703-4.169-32.285-5.023-64.598-2.568-96.481 59.231-9.733 97.265-39.907 117.289-92.071 20.014-52.159 11.944-100.023-25.551-146.894 19.494-25.318 41.742-48.779 66.461-69.966 48.767 34.975 112.763 44.126 163.795 21.405 51.042-22.725 87.073-76.411 93.703-136.051 32.294-4.174 64.598-5.023 96.485-2.558 9.734 59.208 39.885 97.24 92.048 117.264s104.376 21.694 151.232-15.806c25.336 19.509 48.778 41.766 69.981 66.467-34.979 48.757-48.464 103.019-25.739 154.060z" />
<glyph unicode="&#xe90f;" glyph-name="search" d="M654.219 701.912c-109.411 109.411-286.72 109.411-396.131 0s-109.411-286.72 0-396.131c109.411-109.411 286.72-109.411 396.131 0s109.411 286.72 0 396.131zM945.534 14.466c-21.905-21.849-57.366-21.849-79.271 0l-176.413 176.469c-153.612-114.845-371.426-103.977-510.976 35.63-153.164 153.108-153.164 401.397 0 554.561 153.108 153.164 401.453 153.164 554.561 0 139.607-139.551 150.475-357.364 35.63-510.976l176.469-176.469c21.849-21.849 21.849-57.31 0-79.215z" />
<glyph unicode="&#xe910;" glyph-name="remove" d="M896 640v0c0-0.059 0-0.118 0-0.177v-575.647c0-70.99-57.552-128.177-128.546-128.177h-510.908c-70.821 0-128.546 57.387-128.546 128.177v575.647c0 0.059 0 0.118 0 0.177h-63.944c-35.599 0-64.056 28.654-64.056 64 0 35.593 28.679 64 64.056 64h255.947c-0.002 0.2-0.003 0.4-0.003 0.6v126.801c0 36.225 28.39 64.6 63.41 64.6h257.18c34.547 0 63.41-28.922 63.41-64.6v-126.801c0-0.2-0.001-0.4-0.003-0.6h255.947c35.599 0 64.056-28.654 64.056-64 0-35.593-28.679-64-64.056-64h-63.944zM319.81 640c-35.241 0-63.81-28.564-63.81-63.843v-448.314c0-35.259 28.994-63.843 63.81-63.843h384.38c35.241 0 63.81 28.564 63.81 63.843v448.314c0 35.259-28.994 63.843-63.81 63.843h-384.38zM448 832v-64h128v64h-128zM608 512c17.156 0 32-14.261 32-31.853v-256.295c0-18.103-14.327-31.853-32-31.853-17.156 0-32 14.261-32 31.853v256.295c0 18.103 14.327 31.853 32 31.853zM416 512c17.156 0 32-14.261 32-31.853v-256.295c0-18.103-14.327-31.853-32-31.853-17.156 0-32 14.261-32 31.853v256.295c0 18.103 14.327 31.853 32 31.853z" />
<glyph unicode="&#xe911;" glyph-name="plus_small" d="M798.897 503.172h-231.724v231.724c0 30.477-24.695 33.103-55.172 33.103s-55.172-2.626-55.172-33.103v-231.724h-231.724c-30.477 0-33.103-24.695-33.103-55.172s2.626-55.172 33.103-55.172h231.724v-231.724c0-30.477 24.695-33.103 55.172-33.103s55.172 2.626 55.172 33.103v231.724h231.724c30.477 0 33.103 24.695 33.103 55.172s-2.626 55.172-33.103 55.172z" />
<glyph unicode="&#xe912;" glyph-name="plus" d="M856.276 514.207h-278.069v278.069c0 36.573-29.634 39.724-66.207 39.724s-66.207-3.151-66.207-39.724v-278.069h-278.069c-36.573 0-39.724-29.634-39.724-66.207s3.151-66.207 39.724-66.207h278.069v-278.069c0-36.573 29.634-39.724 66.207-39.724s66.207 3.151 66.207 39.724v278.069h278.069c36.573 0 39.724 29.634 39.724 66.207s-3.151 66.207-39.724 66.207z" />
<glyph unicode="&#xe913;" glyph-name="location" d="M470.174-15.561c0 0-342.174 379.484-342.174 591.561s171.923 384 384 384c212.077 0 384-171.923 384-384s-342.174-591.561-342.174-591.561c-23.305-27.303-60.552-26.752-83.651 0zM512 320c141.385 0 256 114.615 256 256s-114.615 256-256 256c-141.385 0-256-114.615-256-256s114.615-256 256-256zM512 448c-70.692 0-128 57.308-128 128s57.308 128 128 128c70.692 0 128-57.308 128-128s-57.308-128-128-128z" />
<glyph unicode="&#xe914;" glyph-name="pin" d="M277.337 616.413c-24.512-0.099-44.311-20.056-44.212-44.568 0.049-11.629 4.663-22.783 12.844-31.052l359.447-359.447c17.418-17.24 45.536-17.102 62.776 0.326 8.18 8.26 12.794 19.404 12.844 31.042v179.654l156.407 156.407 28.009-27.999c21.874-21.884 57.332-21.884 79.206-0.010 2.45 2.45 4.673 5.128 6.619 7.983 13.901 23.405 10.463 53.203-8.388 72.824l-275.864 276.545c-19.147 20.036-49.784 23.672-73.101 8.684-25.529-17.467-32.070-52.323-14.602-77.853 1.966-2.855 4.189-5.533 6.639-7.983l27.999-28.009-156.97-156.545h-179.654zM74.436 68.905l234.823 275.152 99.559-99.559-275.29-234.685c-7.835-6.56-17.784-10.058-28.009-9.801-23.198 0.267-41.782 19.295-41.515 42.493 0.119 9.662 3.557 18.989 9.732 26.399h0.701z" />
<glyph unicode="&#xe915;" glyph-name="social_vimeo" d="M1023.489 689.040c-4.457-100.962-74.061-239.048-208.812-414.257-139.208-183.189-257.158-274.783-353.506-274.783-59.661 0-110.406 55.859-151.552 167.229-27.43 102.35-55.203 204.353-82.633 306.703-30.516 111.37-63.432 167.229-98.749 167.229-7.543 0-34.631-16.307-80.233-48.92l-48.003 62.798c50.403 44.756 100.463 89.86 149.495 134.963 67.547 58.981 117.95 89.86 151.895 92.982 79.548 7.633 128.579-47.532 147.094-165.494 19.887-127.33 33.602-206.434 41.488-237.313 22.973-105.472 48.346-158.556 75.776-158.556 21.258 0 53.489 34.348 96.691 102.697 42.86 68.349 65.832 120.738 68.918 156.474 6.172 58.981-16.801 88.819-68.918 88.819-24.687 0-49.717-5.551-75.776-17 50.403 166.882 146.409 247.721 288.36 243.211 104.92-2.429 154.638-71.471 148.466-206.781z" />
<glyph unicode="&#xe916;" glyph-name="social_twitter" d="M1024 741.11c-37.673-15.449-78.132-25.876-120.67-30.513 43.371 23.985 76.691 61.972 92.407 107.225-40.618-22.183-85.557-38.37-133.409-47.025-38.346 37.662-92.951 61.204-153.414 61.204-116.029 0-210.037-86.784-210.037-193.861 0-15.183 1.824-30.011 5.409-44.19-174.604 8.094-329.394 85.278-433.036 202.575-18.053-28.652-28.423-61.942-28.423-97.477 0-67.289 37.097-126.602 93.431-161.398-34.409 1.034-66.801 9.718-95.128 24.251-0.032-0.798-0.032-1.654-0.032-2.422 0-93.962 72.402-172.327 168.522-190.139-17.604-4.401-36.169-6.794-55.342-6.794-13.571 0-26.695 1.211-39.498 3.456 26.695-76.977 104.314-133.041 196.209-134.636-71.858-51.988-162.441-83.033-260.865-83.033-16.964 0-33.704 0.916-50.125 2.718 92.951-54.942 203.379-87.050 322.033-87.050 386.401 0 597.749 295.414 597.749 551.631 0 8.389-0.256 16.778-0.64 25.108 41.066 27.323 76.659 61.44 104.858 100.372z" />
<glyph unicode="&#xe917;" glyph-name="social_pinterest" d="M526.962 960c-302.229 0-462.962-179.863-462.962-375.934 0-90.92 54.718-204.372 142.351-240.345 13.252-5.534 20.519-3.162 23.511 8.301 2.565 8.697 14.107 50.599 19.664 70.364 1.71 6.325 0.855 11.859-4.702 17.789-29.069 31.229-52.153 88.153-52.153 141.519 0 136.775 117.13 269.597 316.336 269.597 172.275 0 292.824-103.965 292.824-252.599 0-168.004-95.756-284.224-220.153-284.224-68.824 0-120.122 50.204-103.878 112.266 19.664 73.922 58.137 153.378 58.137 206.744 0 47.832-29.069 87.362-88.489 87.362-70.107 0-126.962-64.435-126.962-151.006 0-54.947 20.947-92.106 20.947-92.106s-69.252-260.11-82.076-308.732c-21.802-82.223 2.992-215.441 5.13-226.904 1.282-6.325 8.977-8.301 13.252-3.162 6.84 8.301 90.626 119.382 114.137 199.628 8.55 29.252 43.603 147.844 43.603 147.844 23.084-38.74 89.771-71.155 160.733-71.155 211.176 0 363.786 172.353 363.786 386.212-0.855 205.163-189.802 358.541-433.038 358.541z" />
<glyph unicode="&#xe918;" glyph-name="social_linkedin" d="M78.507 598.486h185.832v-598.486h-185.832v598.486zM171.769 896c59.411 0 107.769-48.432 107.769-107.935s-48.358-107.935-107.769-107.935c-59.756 0-107.769 48.432-107.769 107.935s48.012 107.935 107.769 107.935zM381.089 598.486h177.887v-81.989h2.418c24.87 47.049 85.317 96.519 175.815 96.519 187.904 0 222.791-123.849 222.791-285.059v-327.957h-185.487v290.941c0 69.535-1.036 158.789-96.37 158.789-96.715 0-111.223-75.762-111.223-153.6v-296.13h-185.487v598.486h-0.345z" />
<glyph unicode="&#xe919;" glyph-name="social_instagram" d="M997.094 783.53c12.662-32.445 21.366-69.638 23.74-124.241 2.77-54.603 3.165-72.012 3.165-211.289s-0.791-156.686-3.165-211.289c-2.374-54.207-11.079-91.796-23.74-124.241-13.057-33.632-30.467-62.121-58.955-90.609s-56.977-45.898-90.609-58.955c-32.445-12.662-69.638-21.366-124.241-23.74-54.603-2.77-72.012-3.165-211.289-3.165s-156.686 0.791-211.289 3.165c-54.207 2.374-91.796 11.079-124.241 23.74-33.632 13.057-62.121 30.467-90.609 58.955s-45.898 56.977-58.955 90.609c-12.662 32.445-21.366 69.638-23.74 124.241-2.77 54.603-3.165 72.012-3.165 211.289s0.791 156.686 3.165 211.289c2.374 54.207 11.079 91.796 23.74 124.241 13.057 33.632 30.467 62.121 58.955 90.609s56.977 45.898 90.609 58.955c32.445 12.662 69.638 21.366 124.241 23.74 54.603 2.77 72.012 3.165 211.289 3.165s156.686-0.791 211.289-3.165c54.207-2.374 91.796-11.079 124.241-23.74 33.632-13.057 62.121-30.467 90.609-58.955s45.898-56.977 58.955-90.609zM893.107 258.893c2.169 49.175 2.893 64.362 2.893 189.107s-0.723 139.571-2.893 189.107c-2.169 45.559-9.763 70.147-16.271 86.78-8.678 22.056-18.802 37.605-35.073 53.876s-32.181 26.757-53.876 35.073c-16.271 6.508-41.22 14.102-86.78 16.271-49.175 2.531-64.362 2.893-189.107 2.893s-139.571-0.723-189.107-2.893c-45.559-2.169-70.147-9.763-86.78-16.271-22.056-8.678-37.605-18.802-53.876-35.073s-26.757-32.181-35.073-53.876c-6.508-16.271-14.102-41.22-16.271-86.78-2.531-49.175-2.893-64.362-2.893-189.107s0.723-139.571 2.893-189.107c2.169-45.559 9.763-70.147 16.271-86.78 8.678-22.056 18.802-37.605 35.073-53.876s32.181-26.757 53.876-35.073c16.271-6.508 41.22-14.102 86.78-16.271 49.175-2.531 64-2.893 189.107-2.893s139.571 0.723 189.107 2.893c45.559 2.169 70.147 9.763 86.78 16.271 22.056 8.678 37.605 18.802 53.876 35.073s26.757 32.181 35.073 53.876c6.508 16.271 14.102 41.22 16.271 86.78zM768 640c-35.346 0-64 28.654-64 64s28.654 64 64 64c35.346 0 64-28.654 64-64s-28.654-64-64-64zM512 704c141.281 0 256-114.719 256-256s-114.719-256-256-256c-141.281 0-256 114.719-256 256s114.719 256 256 256zM512 320c70.519 0 128 57.481 128 128 0 70.815-57.185 128-128 128s-128-57.481-128-128c0-70.815 57.481-128 128-128z" />
<glyph unicode="&#xe91a;" glyph-name="social_gplus" d="M325.008 511.259v-126.764c0 0 124.829 0.247 175.816 0.247-27.628-82.039-70.326-126.764-175.816-126.764-106.745 0-189.881 85.004-189.881 190.023s83.387 190.023 189.881 190.023c56.512 0 92.931-19.521 126.336-46.703 26.875 26.44 24.614 30.147 92.68 93.405-57.768 51.645-134.624 83.274-218.765 83.274-179.583 0-325.259-143.32-325.259-320s145.676-320 325.259-320c268.495 0 334.050 230.054 312.198 383.259h-312.449zM907.187 459.187v116.813h-83.252v-116.813h-119.935v-83.252h119.935v-119.935h83.252v119.935h116.813v83.252h-116.813z" />
<glyph unicode="&#xe91b;" glyph-name="social_facebook" d="M576-64v512h192v128h-192v128c12.324 49.934 26.409 85.927 128 64h64v192c-15.988-4.746-71.185 0-128 0-141.133 0-232.494-85.037-256-256v-128h-128v-128h128v-512h192z" />
<glyph unicode="&#xe91c;" glyph-name="outer_link" d="M705.376 512.8v-170.4l318.624 249.629-318.624 239.971v-150.269c-386.976 0-386.976-382.531-386.976-382.531 109.517 179.914 176.928 213.6 386.976 213.6zM784 179.2h-624v432h124.56c0 0 33.091 43.046 104.15 96h-276.71c-26.515 0-48-21.494-48-48v-528c0-26.515 21.485-48 48-48h720c26.515 0 48 21.485 48 48v179.827l-96-78.97v-52.858z" />
<glyph unicode="&#xe91d;" glyph-name="order_desc" d="M588.736 306.752v525.312h-192.32v-525.312h-204.48l300.672-274.816 314.368 274.816z" />
<glyph unicode="&#xe91e;" glyph-name="order_asc" d="M588.8 557.184v-525.312h-192.32v525.312h-204.48l300.672 274.816 314.368-274.816z" />
<glyph unicode="&#xe91f;" glyph-name="order" d="M945.92 692.479l-248.961 217.601-238.081-217.601h161.92v-415.992h152.31v415.992h172.811zM392.318 231.687v415.992h-152.321v-415.992h-161.92l238.081-217.612 248.961 217.612h-172.801z" />
<glyph unicode="&#xe920;" glyph-name="more" d="M224 384c-53.019 0-96 42.981-96 96s42.981 96 96 96c53.019 0 96-42.981 96-96s-42.981-96-96-96zM544 384c-53.019 0-96 42.981-96 96s42.981 96 96 96c53.019 0 96-42.981 96-96s-42.981-96-96-96zM864 384c-53.019 0-96 42.981-96 96s42.981 96 96 96c53.019 0 96-42.981 96-96s-42.981-96-96-96z" />
<glyph unicode="&#xe921;" glyph-name="message" d="M512.788 382.753l63.212-62.753-64-64-64 64 0.631 0.636-63.107 62.508-95.896-94.913-65.777 63.301 96.956 95.715-95.652 94.745 63.301 65.777 224.468-224.88-0.137-0.137zM704.186 446.688l93.711-94.927-65.687-63.035-92.208 93.163-61.49-62.078-65.777 63.301 224.88 224.468 63.268-63.268-96.697-97.623zM127.62 832h768.76c70.371 0 127.62-57.552 127.62-128.546v-510.908c0-70.821-57.137-128.546-127.62-128.546h-768.76c-70.371 0-127.62 57.552-127.62 128.546v510.908c0 70.821 57.137 128.546 127.62 128.546zM192.158 704c-35.434 0-64.158-28.994-64.158-63.81v-384.38c0-35.241 29.169-63.81 64.158-63.81h639.683c35.434 0 64.158 28.994 64.158 63.81v384.38c0 35.241-29.169 63.81-64.158 63.81h-639.683z" />
<glyph unicode="&#xe922;" glyph-name="loader" d="M512 960c35.346 0 64-28.654 64-64v-192c0-35.346-28.654-64-64-64s-64 28.654-64 64v192c0 35.346 28.654 64 64 64zM64 512h192c35.346 0 64-28.654 64-64s-28.654-64-64-64h-192c-35.346 0-64 28.654-64 64s28.654 64 64 64zM768 512h192c35.346 0 64-28.654 64-64s-28.654-64-64-64h-192c-35.346 0-64 28.654-64 64s28.654 64 64 64zM512 256c35.346 0 64-28.654 64-64v-192c0-35.346-28.654-64-64-64s-64 28.654-64 64v192c0 35.346 28.654 64 64 64zM685.255 274.745c24.994 24.994 65.516 24.994 90.51 0l135.765-135.764c24.994-24.994 24.994-65.516 0-90.51s-65.516-24.994-90.51 0l-135.764 135.765c-24.994 24.994-24.994 65.516 0 90.51zM109.255 850.745c24.994 24.994 65.516 24.994 90.51 0l135.765-135.765c24.994-24.994 24.994-65.516 0-90.51s-65.516-24.994-90.51 0l-135.765 135.765c-24.994 24.994-24.994 65.516 0 90.51zM911.529 850.745c24.994-24.994 24.994-65.516 0-90.51l-135.765-135.765c-24.994-24.994-65.516-24.994-90.51 0s-24.994 65.516 0 90.51l135.764 135.765c24.994 24.994 65.516 24.994 90.51 0zM335.529 274.745c24.994-24.994 24.994-65.516 0-90.51l-135.765-135.765c-24.994-24.994-65.516-24.994-90.51 0s-24.994 65.516 0 90.51l135.765 135.764c24.994 24.994 65.516 24.994 90.51 0z" />
<glyph unicode="&#xe923;" glyph-name="link" d="M346.896 283.264c22.784-22.784 59.712-22.784 82.432 0l247.424 247.36c22.72 22.784 22.72 59.712 0 82.496-22.784 22.72-59.712 22.72-82.496 0l-247.36-247.36c-22.784-22.784-22.784-59.712 0-82.496v0zM1006.544 695.552l-247.36 247.36c-22.784 22.784-59.712 22.784-82.432 0l-247.424-247.36c-22.72-22.784-22.72-59.712 0-82.432l41.28-41.28 247.36 247.424 164.928-164.928-247.424-247.36 41.28-41.216c22.72-22.784 59.648-22.784 82.432 0l247.36 247.36c22.784 22.72 22.784 59.648 0 82.432v0zM553.040 324.48l-247.36-247.36-164.928 164.928 247.36 247.36-41.216 41.216c-22.784 22.784-59.712 22.784-82.432 0l-247.424-247.36c-22.72-22.784-22.72-59.712 0-82.432l247.424-247.424c22.72-22.72 59.648-22.72 82.432 0l247.36 247.424c22.784 22.72 22.784 59.648 0 82.432l-41.216 41.216z" />
<glyph unicode="&#xe924;" glyph-name="likes" d="M795.211 720.073c-30.178 30.178-70.243 46.85-112.893 46.85-40.259 0-78.967-14.992-108.951-42.068l-86.657-86.463-86.657 86.463c-29.984 27.076-68.692 42.068-108.951 42.068-42.65 0-82.715-16.672-112.958-46.85-30.501-30.566-47.238-71.083-47.238-114.25s16.737-83.684 46.85-113.733l308.953-306.046 308.501 305.593c30.566 30.501 47.303 71.019 47.303 114.185s-16.737 83.684-47.303 114.25zM884.97 400.069l-399.875-400.069-399.94 400.069c-113.539 113.604-113.539 297.709 0 411.249 110.050 110.050 285.754 112.505 399.94 9.305 114.121 103.2 289.826 100.744 399.875-9.305 113.539-113.539 113.539-297.645 0-411.249z" />
<glyph unicode="&#xe925;" glyph-name="info" d="M615.616 191.616h-207.296c-13.632 0-24.64 12.864-24.64 28.672s11.008 28.672 24.64 28.672l39.68 7.040v192l-39.68 7.424c-13.632 0-24.64 12.864-24.64 28.672s11.008 28.672 24.64 28.672h160.896c4.928 0 6.528 2.048 7.232 3.712-0.192-0.96-0.448-1.856-0.448-4.48v-256l39.616-7.040c13.632 0 24.704-12.864 24.704-28.672s-11.072-28.672-24.704-28.672v0zM448 704h62.72c0.448 0 0.832 0.256 1.28 0.256s0.832-0.256 1.28-0.256h62.72v-60.16c0.064-1.408 0.768-2.56 0.768-3.904 0-1.408-0.704-2.56-0.768-3.904v-60.032h-61.888c-0.768-0.064-1.408-0.448-2.112-0.448-0.768 0-1.408 0.384-2.112 0.448h-61.888v60.096c-0.128 1.344-0.832 2.432-0.832 3.84 0 1.344 0.704 2.496 0.832 3.84v60.224zM512 960c-282.816 0-512-229.248-512-512s229.184-512 512-512c282.752 0 512 229.248 512 512s-229.248 512-512 512v0z" />
<glyph unicode="&#xe926;" glyph-name="indetermine_checkbox" d="M320 512h384c35.346 0 64-28.654 64-64s-28.654-64-64-64h-384c-35.346 0-64 28.654-64 64s28.654 64 64 64z" />
<glyph unicode="&#xe927;" glyph-name="error" d="M447.996 289.903v316.235h115.953v-316.235h-115.953zM447.996 105.412v105.412h115.953v-105.412h-115.953zM1007.279 53.718l-469.472 823.909c-6.472 11.353-18.637 18.373-31.834 18.373s-25.362-7.020-31.834-18.373l-469.43-823.909c-6.377-11.163-6.272-24.814 0.295-35.872 6.546-11.047 18.542-17.846 31.518-17.846h938.924c12.955 0 24.951 6.799 31.518 17.846 6.546 11.058 6.651 24.709 0.316 35.872z" />
<glyph unicode="&#xe928;" glyph-name="edit" d="M302.89 148.388l-86.585-18.646c-8.374 15.649-18.422 31.276-36.855 49.698-18.422 18.422-34.071 28.47-49.687 36.865l18.667 86.564 25.014 25.046c0 0 47.127-0.939 100.324-54.168 53.208-53.186 54.168-100.345 54.168-100.345l-25.046-25.014zM829.973 829.963c-76.963 76.974-134.715 65.421-134.715 65.421l-577.4-577.378-53.858-254.037 254.016 53.88 577.4 577.357c0 0 11.563 57.762-65.443 134.757z" />
<glyph unicode="&#xe929;" glyph-name="download" d="M793.611 581.402h-158.4v250.598h-182.399v-250.598h-158.4l249.599-238.813 249.599 238.813zM992.302 267.101l-152.812 104.852h-94.233l163.219-127.678h-170.14c-4.877 0-9.302-2.516-11.491-6.49l-39.225-109.393h-287.25l-39.225 109.393c-2.17 3.974-6.614 6.49-11.491 6.49h-170.14l163.238 127.678h-94.253l-152.793-104.852c-22.742-13.841-36.336-45.76-30.25-70.916l26.947-150.445c6.115-25.156 33.149-45.74 60.077-45.74h783.051c26.928 0 53.961 20.585 60.077 45.74l26.928 150.445c6.125 25.156-7.488 57.075-30.23 70.916z" />
<glyph unicode="&#xe92a;" glyph-name="dot_radio" d="M704 448c0-106.039-85.961-192-192-192s-192 85.961-192 192c0 106.039 85.961 192 192 192s192-85.961 192-192z" />
<glyph unicode="&#xe92b;" glyph-name="dialog" d="M208 576h-144v-432c0-79.2 64.8-144 144-144h432v144h-432v432zM448 384v384h448v-384h-448zM906.667 896h-470.507c-64.533 0-116.16-46.933-116.16-105.6v-427.733c0-58.667 52.8-106.667 117.333-106.667h469.333c64.533 0 117.333 48 117.333 106.667v426.667c0 58.667-52.8 106.667-117.333 106.667z" />
<glyph unicode="&#xe92c;" glyph-name="cross_circle" d="M0 448c0 282.752 229.184 512 512 512 282.752 0 512-229.248 512-512s-229.248-512-512-512c-282.816 0-512 229.248-512 512zM596.16 274.048c24.768-24.768 65.024-24.768 89.792 0 24.832 24.768 24.832 65.024 0 89.792l-83.712 83.712 83.712 83.776c24.768 24.768 24.768 64.96 0 89.792-24.832 24.832-65.024 24.832-89.792 0l-83.712-83.712-84.032 83.968c-24.768 24.832-65.024 24.832-89.792 0-24.832-24.768-24.832-64.96 0-89.792l83.968-83.968-83.968-84.032c-24.832-24.832-24.832-65.024 0-89.792 24.768-24.832 65.024-24.832 89.792 0l84.032 83.968 83.712-83.712z" />
<glyph unicode="&#xe92d;" glyph-name="cross_close" d="M696.632 151.562l-184.433 184.34-184.832-184.66c-30.925-30.99-81.189-30.99-112.114 0-31.005 30.91-31.005 81.068 0 112.058l184.752 184.74-184.752 184.66c-31.005 30.99-31.005 81.148 0 112.058 30.925 30.99 81.189 30.99 112.114 0l184.832-184.66 184.433 184.34c30.925 30.99 81.109 30.99 112.114 0 30.925-30.99 30.925-81.148 0-112.058l-184.433-184.42 184.433-184.34c31.005-30.91 31.005-81.148 0-112.058-30.925-30.91-81.189-30.91-112.114 0z" />
<glyph unicode="&#xe92e;" glyph-name="cross_error" d="M659.706 210.849l-147.546 147.472-147.866-147.728c-24.74-24.792-64.951-24.792-89.691 0-24.804 24.728-24.804 64.855 0 89.646l147.802 147.792-147.802 147.728c-24.804 24.792-24.804 64.919 0 89.646 24.74 24.792 64.951 24.792 89.691 0l147.866-147.728 147.546 147.472c24.74 24.792 64.887 24.792 89.691 0 24.74-24.792 24.74-64.919 0-89.646l-147.546-147.536 147.546-147.472c24.804-24.728 24.804-64.919 0-89.646-24.74-24.728-64.951-24.728-89.691 0z" />
<glyph unicode="&#xe92f;" glyph-name="copyright" d="M512.338 305.094c-78.878 0-143.044 64.173-143.044 143.045 0 78.878 64.167 143.039 143.044 143.039 57.472 0 107.098-34.088 129.825-83.082h108.818c-26.773 106.903-123.44 186.078-238.643 186.078-135.875 0-246.027-110.152-246.027-246.035s110.152-246.029 246.027-246.029c115.38 0 212.167 79.428 238.757 186.584h-108.698c-22.62-49.279-72.379-83.601-130.059-83.601zM755.956 204.032c-65.159-65.153-151.806-101.049-243.96-101.049s-178.794 35.896-243.96 101.049c-65.159 65.166-101.048 151.814-101.048 243.968 0 190.238 154.765 345.004 345.008 345.004 190.249 0 345.014-154.766 345.014-345.004 0-92.154-35.883-178.802-101.055-243.968zM511.997 896c-247.418 0-447.997-200.581-447.997-448 0-247.426 200.579-448 447.997-448s448.003 200.574 448.003 448c0 247.419-200.586 448-448.003 448z" />
<glyph unicode="&#xe930;" glyph-name="connection" d="M856.576 304.782v427.662c0 54.985-45.844 99.556-102.4 99.556h-459.776l195.113-139.378h215.501v-387.84h-167.414l243.2-198.116 243.2 198.116h-167.424zM318.976 182.044v387.83h167.424l-243.2 198.126-243.2-198.126h167.424v-427.652c0-54.994 45.834-99.556 102.4-99.556h459.776l-195.123 139.378h-215.501z" />
<glyph unicode="&#xe931;" glyph-name="comments" d="M896 767.296h-704v-448h193.792l27.904-167.68 251.584 167.68h230.72v448zM896 192h-192l-384-256-42.688 256h-85.312c-70.72 0-128 57.28-128 128v448c0 70.72 57.28 128 128 128h704c70.72 0 128-57.28 128-128v-448c0-70.72-57.28-128-128-128v0z" />
<glyph unicode="&#xe932;" glyph-name="collection" d="M940.406 718.222c-5.754 17.879-33.956 32.508-62.697 32.508h-353.267c-28.741 0-68.897 12.906-89.25 28.672l-30.877 23.926c-20.353 15.766-60.509 28.672-89.25 28.672h-168.785c-28.73 0-54.838-18.172-58-40.391l-15.138-105.895h877.714l-10.451 32.508zM976.391 612.571h-928.762c-47.145 0-49.5-23.842-46.94-52.971l42.261-479.2c2.56-29.129 9.196-52.971 56.279-52.971h825.563c48.005 0 53.699 23.842 56.259 52.971l42.261 479.2c2.56 29.129 0.225 52.971-46.92 52.971z" />
<glyph unicode="&#xe933;" glyph-name="dot_toggle" d="M512 960c-282.816 0-512-229.248-512-512s229.184-512 512-512c282.752 0 512 229.248 512 512s-229.248 512-512 512v0z" />
<glyph unicode="&#xe934;" glyph-name="chevron_small_right" d="M470.675 690.043c18.45-17.99 198.725-207.261 198.725-207.261 9.825-9.604 14.76-22.184 14.76-34.78s-4.935-25.176-14.76-34.772c0 0-180.276-189.28-198.725-207.27-18.432-17.99-51.623-19.218-71.309 0-19.677 19.191-21.239 45.991 0.018 69.543l165.375 172.499-165.375 172.49c-21.257 23.561-19.694 50.352-0.018 69.552 19.685 19.218 52.877 17.99 71.309 0z" />
<glyph unicode="&#xe935;" glyph-name="chevron_small_left" d="M597.485 690.043c-18.45-17.99-198.725-207.261-198.725-207.261-9.825-9.604-14.76-22.184-14.76-34.78s4.935-25.176 14.76-34.772c0 0 180.276-189.28 198.725-207.27 18.432-17.99 51.623-19.218 71.309 0 19.677 19.191 21.239 45.991-0.018 69.543l-165.375 172.499 165.375 172.49c21.257 23.561 19.694 50.352 0.018 69.552-19.685 19.218-52.877 17.99-71.309 0z" />
<glyph unicode="&#xe936;" glyph-name="chevron_right" d="M336.758 162.597c-22.339-22.573-22.339-59.12 0-81.693 22.306-22.523 58.536-22.556 80.875 0l319.725 326.22c22.339 22.573 22.339 59.153 0 81.726l-319.725 326.22c-22.339 22.573-58.536 22.573-80.875 0-22.339-22.556-22.339-59.12-0.033-81.676l262.208-285.399-262.175-285.399z" />
<glyph unicode="&#xe937;" glyph-name="chevron_left" d="M737.354 162.597c22.339-22.573 22.339-59.12 0-81.693-22.306-22.523-58.536-22.556-80.875 0l-319.725 326.22c-22.339 22.573-22.339 59.153 0 81.726l319.725 326.22c22.339 22.573 58.536 22.573 80.875 0 22.339-22.556 22.339-59.12 0.033-81.676l-262.208-285.399 262.175-285.399z" />
<glyph unicode="&#xe938;" glyph-name="check_circle" d="M512 960c282.752 0 512-229.248 512-512s-229.248-512-512-512c-282.816 0-512 229.248-512 512s229.184 512 512 512zM476.115 255.341l260.544 260.544c25.024 25.024 25.024 65.536 0 90.496-25.024 25.024-65.536 25.024-90.496 0l-215.296-215.296-53.056 53.056c-24.96 24.96-65.472 24.96-90.496 0-24.96-25.024-24.96-65.536 0-90.56l98.304-98.24c24.96-25.024 65.472-25.024 90.496 0z" />
<glyph unicode="&#xe939;" glyph-name="check_small_checkbox" d="M463.52 270.192c-25.024-25.024-65.536-25.024-90.496 0l-98.304 98.24c-24.96 25.024-24.96 65.536 0 90.56 25.024 24.96 65.536 24.96 90.496 0l53.056-53.056 215.296 215.296c24.96 25.024 65.472 25.024 90.496 0 25.024-24.96 25.024-65.472 0-90.496l-260.544-260.544z" />
<glyph unicode="&#xe93a;" glyph-name="check_big" d="M936.997 627.215l-476.213-500.633c-30.67-32.243-80.323-32.243-110.915 0l-198.925 209.044c-30.592 32.243-30.592 84.442 0 116.685 30.67 32.161 80.323 32.161 110.915 0l143.468-150.825 420.755 442.331c30.592 32.243 80.245 32.243 110.915 0 30.67-32.161 30.67-84.36 0-116.603z" />
<glyph unicode="&#xe93b;" glyph-name="check" d="M814.306 595.704l-366.318-385.102c-23.593-24.802-61.787-24.802-85.319 0l-153.020 160.803c-23.532 24.802-23.532 64.955 0 89.758 23.593 24.739 61.787 24.739 85.319 0l110.36-116.019 323.658 340.255c23.532 24.802 61.727 24.802 85.319 0 23.593-24.739 23.593-64.892 0-89.694z" />
<glyph unicode="&#xe93c;" glyph-name="chart" d="M453.033 573.904l218.955-139.704c18.476-11.77 43.026-6.903 55.525 11.020l225.254 323.361c12.795 18.36 8.163 43.544-10.34 56.233-18.52 12.717-43.868 8.1-56.663-10.261l-202.863-291.204-220.29 140.543c-9.112 5.822-20.196 7.76-30.795 5.465-10.591-2.313-19.802-8.725-25.617-17.816l-335.847-525.451c-12.060-18.861-6.424-43.838 12.562-55.796 6.765-4.251 14.318-6.296 21.782-6.296 13.485 0 26.674 6.644 34.424 18.78l313.913 491.124zM891.947 376.931l-199.915-179.371-235.083 181.309c-4.48 3.456-9.65 5.939-15.16 7.305l-31.297 7.734-45.983-71.95 49.253-12.163 255.252-196.857c7.392-5.689 16.2-8.502 24.989-8.502 9.811 0 19.596 3.501 27.319 10.43l225.254 202.108c16.684 14.958 17.983 40.525 2.903 57.082s-40.831 17.86-57.532 2.876zM94.893 388.567l61.080-15.083 45.983 71.933-87.378 21.593c-21.88 5.43-43.949-7.796-49.361-29.461-5.439-21.656 7.849-43.579 29.675-48.982z" />
<glyph unicode="&#xe93d;" glyph-name="calendar" d="M256 384h128v128h-128v-128zM256 192h128v128h-128v-128zM448 384h128v128h-128v-128zM448 192h128v128h-128v-128zM640 384h128v128h-128v-128zM640 192h128v128h-128v-128zM896 576c0 35.328-28.672 64-64 64h-640c-35.328 0-64-28.672-64-64v-448c0-35.328 28.672-64 64-64h640c35.328 0 64 28.672 64 64v448zM896-64h-768c-70.656 0-128 57.28-128 128v768c0 70.72 57.344 128 128 128h128v-64c0-35.328 28.672-64 64-64s64 28.672 64 64v64h256v-64c0-35.328 28.672-64 64-64s64 28.672 64 64v64h128c70.72 0 128-57.28 128-128v-768c0-70.72-57.28-128-128-128v0z" />
<glyph unicode="&#xe93e;" glyph-name="arrow-right" d="M320 768l384-320-384-320z" />
<glyph unicode="&#xe93f;" glyph-name="arrow_left" d="M704 768l-384-320 384-320z" />
<glyph unicode="&#xe940;" glyph-name="arrow_dropdown" d="M514.043 363.212l199.101 203.185c12.369 12.623 32.63 12.829 45.253 0.459s12.829-32.63 0.459-45.253l-221.688-226.235c-0.088-0.090-0.177-0.18-0.267-0.27-6.21-6.21-14.338-9.334-22.478-9.372-8.114-0.045-16.273 2.997-22.546 9.144-0.076 0.074-0.151 0.149-0.226 0.224l-226.279 226.279c-12.497 12.497-12.497 32.758 0 45.255s32.758 12.497 45.255 0l203.416-203.416z" />
</font>
</defs>
</svg>
